<svg width="64" height="64" viewBox="0 0 64 64" fill="none" xmlns="http://www.w3.org/2000/svg">
<rect width="64" height="64" rx="5" fill="url(#paint0_linear)"/>
<rect width="64" height="64" rx="5" fill="url(#paint1_linear)"/>
<path fill-rule="evenodd" clip-rule="evenodd" d="M50.5139 1.06947C49.7811 1.16193 49.1138 1.3569 48.5093 1.65533C48.0042 1.90461 47.8435 2.0282 47.236 2.63481L46.5408 3.32903L43.4098 10.9892C40.6091 17.8412 40.2657 18.6467 40.1547 18.6249C40.0865 18.6114 37.7836 17.6848 35.0372 16.5657C32.2907 15.4467 30.0123 14.5184 29.9739 14.503C29.9355 14.4875 29.7984 14.3209 29.6691 14.1328C28.94 13.0724 27.6323 12.3362 26.3469 12.2624C25.6744 12.2238 25.2645 12.2968 24.7461 12.5475C24.0884 12.8657 23.5666 13.58 23.4682 14.2972L23.4266 14.5998L23.1063 14.6664C22.7172 14.7474 22.212 14.976 21.9054 15.2098C21.6334 15.4172 21.2218 16.0337 21.1698 16.3118C21.1327 16.5098 21.1289 16.5117 20.6216 16.5797C19.8113 16.6883 19.1796 17.0317 18.7739 17.5845C18.5633 17.8713 18.3508 18.4556 18.3508 18.748C18.3508 18.9261 18.3295 18.9557 18.2013 18.9557C17.9227 18.9557 17.2777 19.1964 16.9495 19.4228C16.5814 19.6767 16.2306 20.1474 16.0819 20.5867L15.982 20.8819L15.6932 20.8826C14.4825 20.8857 13.2643 21.942 13.2643 22.9886V23.2268L12.9076 23.2976C11.9632 23.4853 11.138 24.196 10.9493 24.9841C10.9147 25.1288 10.8709 25.1465 10.3821 25.2133C9.1776 25.3778 8.37027 26.0917 8.17245 27.1672L8.09888 27.5671L7.73495 27.6364C6.70281 27.8329 5.89455 28.6569 5.77948 29.6301L5.74381 29.9316L5.36363 30.0103C4.81416 30.1239 4.37404 30.3627 4.01718 30.7406C3.65256 31.1268 3.46703 31.5086 3.41939 31.9709L3.38533 32.3015L3.00812 32.3758C1.63835 32.6458 0.801552 33.837 1.04062 35.1768C1.16964 35.9001 1.528 36.5358 2.16952 37.1792L2.71422 37.7254L2.58488 37.974C2.35326 38.4192 2.50002 38.8118 3.03219 39.1708L3.34414 39.3813L2.97345 39.703C2.43657 40.1689 2.33397 40.6197 2.67272 41.0243C2.78686 41.1606 11.4999 47.0419 32.4319 61.1118C34.6487 62.6019 34.9816 62.7816 35.8369 62.9502C36.3471 63.0507 37.3205 62.9925 37.7695 62.8345C38.2536 62.6641 38.62 62.4695 38.9515 62.2064C39.2339 61.9823 60.3611 41.2152 61.2953 40.2433C62.1552 39.3489 62.5026 38.3712 62.3269 37.341C62.2301 36.7742 62.2301 36.6877 62.3274 36.0983C62.3899 35.7185 62.3899 35.5357 62.3269 35.1663C62.2295 34.5954 62.2292 34.501 62.3242 33.9611C62.3991 33.5358 62.3751 32.9962 62.2638 32.6079C62.2298 32.4889 62.2429 32.2913 62.3012 32.0435C62.6421 30.5956 61.8367 28.9474 60.4389 28.2321C60.1659 28.0924 59.0633 27.5813 57.9887 27.0963C56.914 26.6112 56.0127 26.1935 55.9859 26.1679C55.9591 26.1423 56.2338 25.4528 56.5964 24.6356C58.0434 21.3747 59.6574 17.325 61.3944 12.5967C62.5656 9.40859 62.9464 8.2816 62.9872 7.88233C63.1657 6.13699 61.4701 4.15983 58.547 2.7049C55.9596 1.41705 52.8224 0.778373 50.5139 1.06947ZM53.0695 2.89608C54.5709 3.09137 56.0304 3.52985 57.4304 4.2063C58.5724 4.75805 59.3911 5.31291 60.0703 5.99539C61.0098 6.93951 61.1706 7.45622 60.8195 8.40364C60.6512 8.85796 60.6294 8.88611 60.3548 9.00261C58.5294 9.77723 54.9719 9.29855 52.0948 7.89115C50.9245 7.31865 50.0787 6.74541 49.3974 6.06293C48.8001 5.4647 48.4899 5.00218 48.3627 4.52033L48.2835 4.22041L48.7474 3.78932C49.0025 3.55222 49.3369 3.29206 49.4904 3.21123C49.7526 3.07317 50.4061 2.89217 50.8241 2.8419C51.3087 2.78362 52.4087 2.81015 53.0695 2.89608ZM53.1594 4.34884C52.743 4.49293 52.5429 4.64124 52.3966 4.9145C51.9552 5.73896 52.952 6.82581 54.5792 7.2943C55.8544 7.66145 56.8914 7.52388 57.3456 6.9274C57.896 6.20459 57.1173 5.11799 55.6534 4.566C54.7392 4.22134 53.7716 4.13708 53.1594 4.34884ZM46.3244 9.92996C45.299 11.9723 44.4725 13.6013 44.4875 13.5501C44.5084 13.4791 47.1924 6.92777 47.666 5.79165L47.7532 5.58251L47.9709 5.89958L48.1887 6.21671L46.3244 9.92996ZM49.2897 7.25459C50.3559 8.12584 51.8138 8.88952 53.54 9.48098C54.0092 9.64178 54.3519 9.79183 54.3414 9.83203C54.3312 9.87056 53.6088 11.4988 52.7361 13.4503C51.8633 15.4018 49.8239 19.9902 48.2039 23.6468C46.5841 27.3034 45.2505 30.3041 45.2404 30.315C45.2304 30.326 45.1288 30.1583 45.0146 29.9422C44.9005 29.7263 44.6236 29.3648 44.3993 29.139C43.4197 28.1526 41.9808 27.8288 39.5344 28.0439C38.9885 28.092 38.5336 28.1251 38.5234 28.1177C38.4917 28.0944 39.8701 25.1891 41.1604 22.5595C43.0178 18.7743 48.8886 6.96387 48.9128 6.96387C48.9244 6.96387 49.094 7.09472 49.2897 7.25459ZM56.4069 10.1635C57.2355 10.2889 58.8502 10.289 59.5639 10.1637C59.8674 10.1104 60.1395 10.052 60.1687 10.034C60.2493 9.98407 60.251 9.97861 59.7948 11.2297C58.2213 15.5448 57.8164 16.5453 55.9265 20.7887C53.787 25.5922 51.9496 29.384 51.7837 29.3378C50.9894 29.1167 50.9999 29.1178 50.4449 29.1981C49.5789 29.3236 47.9298 29.9252 46.5508 30.6186C46.3111 30.7392 46.1382 30.7972 46.1569 30.7507C46.2815 30.442 55.318 10.1282 55.3659 10.0494C55.3833 10.0207 55.4851 10.0135 55.5921 10.0335C55.699 10.0534 56.0657 10.1119 56.4069 10.1635ZM27.0495 13.2957C27.5101 13.4546 27.7014 13.5623 27.4343 13.5125C27.0711 13.4447 26.7833 13.5909 26.0116 14.2353C25.2047 14.9093 25.2627 14.8883 24.6586 14.7254C24.4167 14.6601 24.4156 14.6585 24.4553 14.4099C24.6264 13.3379 25.7599 12.8511 27.0495 13.2957ZM28.4309 15.8417C28.9848 16.0721 29.2969 16.2346 29.2927 16.2901C29.2891 16.338 29.2671 16.4627 29.2439 16.5671C29.2025 16.7533 29.2098 16.7605 29.6148 16.927C29.8421 17.0206 30.0455 17.0798 30.0669 17.0588C30.0882 17.0378 30.1368 16.9318 30.1747 16.8232C30.2128 16.7145 30.2825 16.6295 30.3298 16.6341C30.4304 16.644 37.5933 19.5525 39.2088 20.2393C39.8144 20.4968 40.3098 20.7319 40.3098 20.7617C40.3098 20.7915 39.7266 22.2357 39.0138 23.9711C37.7644 27.0126 37.3698 28.1325 37.4313 28.4622C37.4472 28.5476 37.1233 30.8683 36.7116 33.6193C35.0513 44.7114 34.3616 49.3667 34.3763 49.3814C34.3848 49.39 36.2328 47.4242 38.4829 45.0131C49.8215 32.8633 51.8323 30.7243 51.9826 30.6521C52.3449 30.4781 52.6868 29.9519 53.5126 28.2973L54.0134 27.2937L56.5748 28.4591C57.9836 29.1001 59.2716 29.689 59.4372 29.7678C59.9745 30.0233 60.4079 30.747 60.4079 31.3887C60.4079 31.5163 60.3502 31.7554 60.2798 31.9201C60.1909 32.1276 60.1576 32.3186 60.1712 32.5424L60.1908 32.8653L49.9866 42.9115C44.3744 48.4369 39.3601 53.3738 38.8438 53.8824C37.7462 54.9638 37.4821 55.1223 36.7031 55.1675C35.7332 55.2237 36.8596 55.9324 21.6385 45.6897L7.89859 36.4437L7.86031 35.9741C7.81491 35.4161 7.73724 35.1542 7.45662 34.6121C7.21687 34.1491 6.79933 33.6475 6.3725 33.3095L6.07903 33.0771L7.03791 32.29L7.99672 31.5029L8.3609 31.8508C8.88935 32.3556 9.18405 32.9444 9.22003 33.5673C9.23529 33.8306 9.2173 34.1321 9.18008 34.2391C9.11328 34.4309 9.11607 34.4349 9.40495 34.5604C9.99666 34.8175 9.96503 34.8159 10.0803 34.5961C10.1464 34.4702 10.1953 34.1962 10.2124 33.8567C10.259 32.9298 9.89375 32.0635 9.12612 31.2799L8.74078 30.8866L9.6844 30.1082L10.628 29.3298L10.8947 29.6261C11.0415 29.789 11.2644 30.1299 11.3901 30.3835C11.594 30.7947 11.6186 30.8956 11.617 31.3155C11.616 31.5745 11.5824 31.8458 11.5422 31.9183C11.4739 32.0421 11.4972 32.0621 11.9171 32.2402L12.3648 32.4301L12.4452 32.2415C12.8452 31.303 12.5278 30.0248 11.6581 29.0716L11.3528 28.7371L12.2875 27.9666L13.2222 27.1961L13.4053 27.4097C13.5059 27.5273 13.6754 27.8051 13.7819 28.0273C13.945 28.3676 13.9756 28.5045 13.9765 28.8971C13.9771 29.1534 13.9549 29.4351 13.9271 29.523C13.8792 29.6746 13.899 29.6928 14.3103 29.8748L14.744 30.0666L14.843 29.8187C15.1702 28.9996 14.9398 27.8631 14.2659 26.9727C14.1245 26.7857 14.0086 26.6146 14.0086 26.5927C14.0086 26.5426 15.6555 25.1759 15.7678 25.1328C15.8771 25.0908 16.3143 25.6639 16.5321 26.1346C16.6703 26.4332 16.7038 26.5953 16.7053 26.971C16.7062 27.2273 16.684 27.5101 16.6559 27.5994C16.6069 27.7548 16.6231 27.7692 17.0253 27.9305C17.5159 28.1272 17.5524 28.1074 17.6648 27.5825C17.8565 26.687 17.5684 25.7145 16.858 24.8595C16.6831 24.649 16.5559 24.4609 16.5754 24.4414C16.5948 24.4219 17.0092 24.076 17.4963 23.6726L18.3818 22.9392L18.5271 23.1066C18.6069 23.1987 18.7605 23.4558 18.8683 23.6779C19.0412 24.0343 19.0642 24.1438 19.0642 24.6099C19.0642 24.9004 19.0403 25.1868 19.0111 25.2465C18.9667 25.3373 19.0255 25.3852 19.3737 25.5416C19.6022 25.6444 19.8119 25.7143 19.8396 25.6972C19.9536 25.6266 20.0877 25.056 20.0877 24.6412C20.0877 23.9478 19.847 23.2771 19.3766 22.6598C19.2539 22.4988 19.1684 22.3431 19.1866 22.3136C19.2477 22.2146 20.8849 20.8819 20.9455 20.8819C21.0504 20.8819 21.3846 21.3094 21.5911 21.7078C21.7745 22.0617 21.7906 22.1396 21.7866 22.6527C21.7842 22.9602 21.7708 23.2649 21.7569 23.3297C21.7364 23.4247 21.8133 23.4814 22.1543 23.6226L22.5771 23.7978L22.6759 23.567C22.7302 23.44 22.7875 23.1099 22.8031 22.8334C22.8479 22.0431 22.5992 21.3471 22.0028 20.5938L21.701 20.2124L22.6125 19.4613C23.6623 18.5963 23.5936 18.6025 23.961 19.3382C24.2235 19.8638 24.2899 20.3212 24.1654 20.7465L24.0743 21.0579L24.5147 21.2432L24.9549 21.4285L25.0383 21.2329C25.371 20.4518 25.19 19.3783 24.5735 18.4764C24.421 18.2532 24.3193 18.0507 24.3475 18.0264C24.3758 18.002 24.7867 17.6641 25.2606 17.2753L26.1224 16.5685L26.3062 16.7835C26.5766 17.0998 26.8978 17.8017 26.9448 18.1791C26.972 18.3968 26.9556 18.6124 26.8968 18.8136L26.8076 19.1182L27.2336 19.2938C27.468 19.3903 27.6689 19.4586 27.6802 19.4455C27.8754 19.2192 27.9848 18.5059 27.9046 17.9816C27.8256 17.4651 27.4524 16.6719 27.0996 16.2704L26.8479 15.984L27.1432 15.7305C27.3055 15.5911 27.4663 15.4778 27.5004 15.4786C27.5345 15.4796 27.9532 15.6429 28.4309 15.8417ZM23.6874 15.7714C23.7363 15.8995 23.7768 16.0217 23.7774 16.0428C23.778 16.0639 23.547 16.2708 23.2639 16.5024L22.7493 16.9235L22.4109 16.8083C22.1196 16.7091 22.0779 16.6754 22.1114 16.5662C22.2815 16.0124 22.8595 15.5568 23.4094 15.5431C23.5725 15.539 23.6108 15.5704 23.6874 15.7714ZM21.1813 17.7752C21.227 17.929 21.2648 18.0743 21.2653 18.0983C21.2661 18.1337 20.5885 18.7174 20.1372 19.0699C20.0505 19.1376 19.969 19.1383 19.6802 19.0736L19.3287 18.9948L19.3659 18.6805C19.4475 17.9909 20.1131 17.444 20.8255 17.4813C21.0913 17.4952 21.1002 17.5026 21.1813 17.7752ZM18.5671 20.0506C18.6187 20.1744 18.661 20.2808 18.661 20.2869C18.661 20.2931 18.41 20.5016 18.1032 20.7503L17.5455 21.2025L17.3124 21.1279C16.9773 21.0207 16.9609 20.9872 17.0963 20.6865C17.2597 20.3235 17.5314 20.081 17.9288 19.9435C18.3965 19.7817 18.4593 19.7922 18.5671 20.0506ZM16.0171 21.8605C16.1553 22.3315 16.1367 22.3874 15.7334 22.7148C14.7662 23.5001 14.857 23.4519 14.5054 23.3674L14.1916 23.2919L14.2329 23.0655C14.3282 22.5422 14.564 22.1925 14.9582 21.9895C15.4409 21.741 15.9634 21.6773 16.0171 21.8605ZM33.8175 23.2806C33.5717 23.402 33.4414 23.6849 33.5358 23.8924C33.5725 23.9731 33.7448 24.2387 33.9186 24.4827C34.0923 24.7267 34.2187 24.952 34.1994 24.9833C34.1363 25.0855 33.7128 25.1684 33.2518 25.1687C32.4432 25.1694 32.1224 25.4373 32.122 26.1121C32.1216 26.5503 32.023 26.6424 31.2965 26.8825C31.0169 26.9748 30.6606 27.1143 30.505 27.1923C30.1789 27.3557 29.7863 27.7633 29.727 28.0002C29.6885 28.1537 29.7225 28.6378 29.8012 29.0548C29.836 29.2398 29.8253 29.2491 29.2535 29.5335C28.0098 30.1519 27.6916 30.9549 28.3963 31.6969C28.5954 31.9066 28.6664 31.9417 28.8913 31.9417C29.0987 31.9417 29.1918 31.9036 29.3351 31.7601C29.5485 31.5463 29.5629 31.3665 29.3894 31.0815C29.2324 30.8235 29.2681 30.7735 29.7783 30.5359C30.6262 30.1411 30.7924 30.0399 30.9275 29.8355C31.0945 29.5831 31.1112 29.161 30.9746 28.6486C30.8872 28.321 30.8888 28.3028 31.0112 28.2098C31.0814 28.1564 31.4104 28.0235 31.7424 27.9145C32.0743 27.8055 32.4773 27.6329 32.6379 27.5309C32.9994 27.3012 33.3003 26.8479 33.3003 26.5328V26.3054L33.733 26.2651C34.7632 26.1692 35.4688 25.6162 35.471 24.9031C35.4716 24.7032 35.2945 24.3625 34.9192 23.8417C34.4466 23.186 34.2311 23.0762 33.8175 23.2806ZM13.4177 24.2961C13.4698 24.397 13.5124 24.4923 13.5124 24.5081C13.5124 24.5311 12.7264 25.193 12.4143 25.4327C12.3161 25.5082 11.8996 25.3582 11.8996 25.2473C11.8996 25.1119 12.1243 24.7134 12.2813 24.5706C12.4705 24.3983 12.7672 24.2498 13.0607 24.1807C13.1897 24.1502 13.3016 24.1225 13.3092 24.119C13.3169 24.1156 13.3657 24.1953 13.4177 24.2961ZM25.9806 25.3344C25.6065 25.4829 25.5034 25.8851 25.7409 26.2702C25.9227 26.5646 25.9195 26.9561 25.7341 27.1064C25.5596 27.2481 25.2289 27.2517 24.9695 27.1147C24.8411 27.047 24.6176 27.0085 24.3368 27.006C23.5164 26.9986 22.9256 27.4345 22.6913 28.2204C22.5316 28.7562 22.5369 28.9995 22.7233 29.6743C22.8081 29.9816 22.8779 30.2646 22.8783 30.3032C22.8796 30.4223 22.5693 30.5057 21.7633 30.603C20.8094 30.7182 20.3057 30.9323 20.0387 31.3364C19.8676 31.5952 19.8466 31.7751 19.8986 32.5381C19.9261 32.9419 19.8291 33.0601 19.4701 33.0601C19.3034 33.0601 18.9206 33.0014 18.6193 32.9297C18.29 32.8512 17.9637 32.8113 17.801 32.8296C17.2365 32.893 16.7322 33.4696 16.6475 34.1484C16.6202 34.3679 16.6477 34.6668 16.7348 35.0948C16.863 35.725 16.8933 36.0426 16.8251 36.0426C16.8048 36.0426 16.6339 35.9976 16.4454 35.9428C15.6272 35.7045 14.8575 35.9485 14.4755 36.5675C14.3092 36.8369 14.288 36.9254 14.2892 37.3425C14.2903 37.7027 14.3218 37.8718 14.4234 38.0619C14.6554 38.4967 15.1794 38.901 15.5098 38.9005C15.7438 38.9001 16.0394 38.6812 16.0847 38.4748C16.1277 38.2789 15.9838 37.9066 15.8652 37.9066C15.8304 37.9066 15.7334 37.8379 15.6497 37.754C15.4421 37.5462 15.4352 37.1423 15.637 37.0107C15.7611 36.9296 15.8242 36.9329 16.2094 37.0403C16.7046 37.1783 17.0014 37.1917 17.3026 37.0893C17.639 36.975 17.8603 36.7885 17.9845 36.5147C18.1348 36.1832 18.1319 35.8437 17.9721 35.0619C17.8495 34.462 17.8482 34.0418 17.9686 33.9672C17.9946 33.9511 18.2658 33.9946 18.5711 34.0636C19.8999 34.3644 20.8373 34.0012 21.089 33.0878C21.125 32.9573 21.1447 32.6251 21.1328 32.3495L21.1112 31.8485L21.4214 31.7791C21.5919 31.7409 22.006 31.6778 22.3415 31.6388C22.677 31.5998 23.0897 31.5083 23.2588 31.4355C23.6462 31.2685 24.0283 30.8461 24.0789 30.5285C24.1195 30.2745 24.1127 30.2286 23.9226 29.4761C23.7667 28.8591 23.8025 28.4636 24.0353 28.2304C24.2051 28.0604 24.3183 28.0625 24.802 28.2451C25.3761 28.4616 26.2263 28.2687 26.6738 27.8204C27.1376 27.3559 27.2355 26.6096 26.9198 25.9458C26.8223 25.7407 26.6862 25.5228 26.6174 25.4616C26.4841 25.343 26.1349 25.2732 25.9806 25.3344ZM10.9469 26.3339L11.0204 26.5884L10.3295 27.1568C9.67869 27.6921 9.62578 27.7228 9.41984 27.685C9.12308 27.6304 9.08847 27.5824 9.13741 27.2925C9.19814 26.9322 9.489 26.5105 9.80455 26.3253C10.0436 26.185 10.6424 26.0315 10.8127 26.0669C10.8461 26.0738 10.9065 26.194 10.9469 26.3339ZM8.30179 28.5192C8.30179 28.5506 8.31792 28.6185 8.33764 28.67C8.36258 28.735 8.14268 28.9551 7.61895 29.3896C7.2039 29.7338 6.83885 30.0156 6.80771 30.0156C6.70064 30.0156 6.75238 29.6114 6.90001 29.2937C7.06061 28.9483 7.33801 28.6995 7.71814 28.5599C7.99784 28.4573 8.30179 28.4361 8.30179 28.5192ZM42.1885 28.9887C43.4196 29.2499 44.2128 30.0633 44.5007 31.3596L44.6004 31.8082L44.3505 32.372C44.2131 32.6822 44.1144 32.9359 44.1312 32.9359C44.1751 32.9359 45.2632 32.3578 45.5204 32.1978C45.6398 32.1235 46.2121 31.8291 46.7921 31.5435C48.6648 30.6213 50.2808 30.0473 50.8841 30.0901L51.1471 30.1088L46.1947 35.4006L41.2422 40.6925L40.8225 40.7378C40.2921 40.7951 39.4063 40.693 38.8831 40.5143C38.006 40.2147 36.8981 39.5005 36.8981 39.2346C36.8981 39.0866 38.3788 29.0691 38.4037 29.0483C38.4115 29.0419 38.7528 29.0095 39.1622 28.9765C40.341 28.8814 41.7092 28.8869 42.1885 28.9887ZM5.82055 30.8508C5.82055 30.9021 4.43651 32.0051 4.40798 31.9766C4.34266 31.9112 4.67043 31.368 4.88016 31.194C5.1325 30.9846 5.82055 30.7335 5.82055 30.8508ZM25.0454 32.434C24.7876 32.6923 24.8048 32.9127 25.1122 33.2852C25.2487 33.4506 25.3603 33.6075 25.3603 33.6337C25.3603 33.66 25.1719 33.6816 24.9416 33.6818C24.1919 33.6825 23.755 33.8912 23.5107 34.3654C23.3754 34.6283 23.3694 34.6887 23.4081 35.4003C23.4565 36.2885 23.5215 36.205 22.5933 36.4466C21.8022 36.6525 21.4163 36.87 21.1526 37.2586C20.9497 37.5575 20.9466 37.5722 20.9878 38.0378C21.0421 38.6524 20.9653 38.7404 20.3225 38.8002C19.7417 38.8544 19.2198 39.09 18.9164 39.4353C18.4091 40.0125 18.4224 40.6995 18.9515 41.2526C19.2006 41.5131 19.2281 41.5255 19.4803 41.4916C19.9626 41.4268 20.1637 41.0057 19.9016 40.6094C19.7412 40.3668 19.7456 40.2572 19.9228 40.0905C20.0317 39.988 20.1908 39.9397 20.5586 39.8972C21.1478 39.8292 21.4377 39.7154 21.7565 39.4269C22.0994 39.1166 22.2744 38.6739 22.249 38.1806C22.2379 37.9643 22.2565 37.7599 22.2903 37.7263C22.3242 37.6927 22.6268 37.5937 22.9629 37.5064C24.0012 37.2366 24.3265 37.0297 24.5699 36.484C24.6777 36.2423 24.6867 36.131 24.6483 35.515L24.6049 34.819L25.1597 34.783C25.9872 34.7293 26.4494 34.4831 26.6041 34.0136C26.7316 33.6265 26.374 32.8011 25.9089 32.4091C25.6402 32.1826 25.2861 32.1929 25.0454 32.434ZM2.59425 33.6349C2.34457 34.045 2.49041 34.4492 3.02766 34.8358C3.19905 34.9591 3.3393 35.068 3.3393 35.0777C3.3393 35.0875 3.18826 35.2121 3.00365 35.3549C2.81905 35.4975 2.62229 35.7106 2.56652 35.8284C2.51069 35.9462 2.45096 36.0426 2.43371 36.0426C2.41641 36.0426 2.31393 35.8538 2.20594 35.6231C2.0405 35.27 2.00936 35.1301 2.00861 34.7377C2.00762 34.2067 2.14279 33.8743 2.47292 33.5961C2.72414 33.3843 2.74306 33.3904 2.59425 33.6349ZM5.75188 33.9986C5.92774 34.1388 6.19757 34.4304 6.35153 34.6465C6.61696 35.0191 6.86434 35.577 6.79493 35.6465C6.77725 35.6642 6.56821 35.549 6.33032 35.3905C5.93115 35.1246 5.89517 35.0825 5.86304 34.8425C5.82799 34.5811 5.70585 34.4328 5.22772 34.0717C5.04993 33.9373 5.04832 33.9312 5.16556 33.8387C5.34049 33.7005 5.3978 33.7162 5.75188 33.9986ZM60.1908 34.6001V35.0216L56.0955 39.0582C41.8748 53.075 38.0925 56.7859 37.8496 56.9598C37.2611 57.3811 36.3656 57.4583 35.6102 57.1527C35.3984 57.067 29.2936 52.9994 20.5697 47.1313C6.14857 37.4311 5.88562 37.2506 5.88413 37.0544C5.88233 36.8256 5.62689 36.4976 5.28609 36.2866C5.05384 36.1428 5.04361 36.0689 5.23814 35.9396C5.35017 35.865 5.43719 35.9075 6.13418 36.3763C6.55872 36.6619 12.4889 40.6501 19.3123 45.2389C26.1357 49.8278 32.3106 53.9838 33.0343 54.4745C34.9984 55.8062 35.2279 55.9227 36.131 56.0466C36.7626 56.1332 37.4943 56.0155 38.0606 55.7363C38.5191 55.5102 38.8141 55.2486 40.5889 53.4936C41.3054 52.7851 46.0089 48.1505 51.0412 43.1945C56.0734 38.2384 60.1908 34.1811 60.1908 34.1811C60.1908 34.1811 60.1908 34.3684 60.1908 34.6001ZM60.1921 36.7678L60.1935 37.1822L49.0745 48.1329C40.0086 57.0616 37.8951 59.1133 37.6284 59.2437C36.9019 59.5992 36.0902 59.5831 35.3644 59.1989C35.1588 59.0901 31.3792 56.5687 26.9653 53.596C22.5514 50.6232 16.0091 46.2192 12.4269 43.8094C6.95826 40.1307 5.91062 39.4031 5.89517 39.273C5.85795 38.9592 5.73563 38.7703 5.42516 38.5469C5.25029 38.4211 5.09571 38.3096 5.08169 38.2991C5.04627 38.2727 5.27039 38.0308 5.33031 38.0308C5.35711 38.0308 11.9773 42.4704 20.0418 47.8966C28.1063 53.3227 34.8701 57.8357 35.0725 57.9254C35.624 58.1697 36.0551 58.2433 36.7485 58.2111C37.4479 58.1788 37.9229 58.0344 38.4154 57.7046C38.5873 57.5894 43.5571 52.7387 49.4594 46.9252C55.3616 41.1117 60.1908 36.3543 60.1908 36.3543C60.1908 36.3543 60.1914 36.5399 60.1921 36.7678ZM60.1447 38.6603C59.9795 38.9406 37.6209 60.9046 37.3693 61.0338C36.9973 61.2249 36.342 61.2539 35.9056 61.0987C35.6734 61.0161 31.1867 58.0316 21.8556 51.7527C14.3157 46.6791 7.46282 42.0705 6.62695 41.5112C5.79108 40.952 5.09571 40.4855 5.08169 40.4746C5.04466 40.4458 5.27163 40.2055 5.3359 40.2055C5.3658 40.2055 11.9818 44.641 20.0381 50.062C28.0943 55.483 34.8277 59.9833 35.0011 60.0626C35.4914 60.2869 36.0101 60.3991 36.5569 60.3991C37.5438 60.3991 38.2463 60.0963 39.052 59.3238C39.3441 59.0438 44.2196 54.2502 49.8863 48.6713C55.5531 43.0924 60.197 38.5279 60.2061 38.5279C60.2153 38.5279 60.1877 38.5875 60.1447 38.6603ZM37.3419 40.2801L37.5066 40.423L36.7224 42.702C36.2911 43.9555 35.9317 44.9745 35.9237 44.9665C35.9121 44.9549 36.8044 40.6906 36.9299 40.1576C36.9671 39.9996 37.0455 40.023 37.3419 40.2801Z" fill="url(#paint2_radial)"/>
<defs>
<linearGradient id="paint0_linear" x1="64" y1="0" x2="0" y2="64" gradientUnits="userSpaceOnUse">
<stop offset="0.015625"/>
<stop offset="0.015725" stop-opacity="0.56"/>
<stop offset="0.515625"/>
<stop offset="1" stop-opacity="0.62"/>
</linearGradient>
<linearGradient id="paint1_linear" x1="0" y1="0" x2="64" y2="64" gradientUnits="userSpaceOnUse">
<stop offset="0.015625" stop-opacity="0"/>
<stop offset="0.015725" stop-color="#838383"/>
<stop offset="0.515625" stop-opacity="0"/>
<stop offset="1" stop-color="#9F9F9F"/>
</linearGradient>
<radialGradient id="paint2_radial" cx="0" cy="0" r="1" gradientUnits="userSpaceOnUse" gradientTransform="translate(32 32) rotate(90) scale(31)">
<stop stop-color="#05C3FF"/>
<stop offset="1" stop-color="white"/>
</radialGradient>
</defs>
</svg>
